<?xml version="1.0" encoding="utf-8"?>
<svg viewBox="-180.389 -349.41 841.065 408.432" xmlns="http://www.w3.org/2000/svg">
  <rect x="-40.667" y="-176.578" width="47.076" height="60.753" style="fill: rgb(255, 255, 255); paint-order: stroke markers; fill-rule: nonzero; stroke: rgb(255, 255, 255);"/>
  <path d="M 11.918 -250.451 C 3.665 -240.685 -9.54 -232.982 -22.744 -234.082 C -24.395 -247.288 -17.93 -261.317 -10.365 -269.983 C -2.112 -280.025 12.331 -287.177 24.022 -287.727 C 25.397 -273.971 20.033 -260.492 11.918 -250.451 M 23.884 -231.469 C 4.766 -232.569 -11.603 -220.603 -20.681 -220.603 C -29.897 -220.603 -43.79 -230.919 -58.92 -230.644 C -78.59 -230.369 -96.883 -219.228 -106.925 -201.483 C -127.557 -165.996 -112.289 -113.451 -92.344 -84.566 C -82.578 -70.261 -70.887 -54.58 -55.481 -55.131 C -40.901 -55.682 -35.124 -64.622 -17.518 -64.622 C 0.227 -64.622 5.316 -55.131 20.721 -55.406 C 36.677 -55.682 46.718 -69.711 56.483 -84.016 C 67.626 -100.247 72.165 -116.065 72.44 -116.89 C 72.165 -117.165 41.629 -128.858 41.354 -164.07 C 41.078 -193.506 65.425 -207.535 66.525 -208.36 C 52.77 -228.718 31.313 -230.919 23.884 -231.469 M 134.337 -271.358 L 134.337 -56.919 L 167.624 -56.919 L 167.624 -130.233 L 213.702 -130.233 C 255.793 -130.233 285.366 -159.118 285.366 -200.933 C 285.366 -242.748 256.343 -271.358 214.803 -271.358 L 134.337 -271.358 Z M 167.624 -243.298 L 206 -243.298 C 234.885 -243.298 251.392 -227.893 251.392 -200.796 C 251.392 -173.698 234.885 -158.156 205.862 -158.156 L 167.624 -158.156 L 167.624 -243.298 Z M 346.162 -55.269 C 367.07 -55.269 386.465 -65.86 395.268 -82.64 L 395.956 -82.64 L 395.956 -56.919 L 426.767 -56.919 L 426.767 -163.657 C 426.767 -194.606 402.008 -214.551 363.907 -214.551 C 328.557 -214.551 302.422 -194.331 301.459 -166.546 L 331.445 -166.546 C 333.921 -179.75 346.162 -188.417 362.944 -188.417 C 383.302 -188.417 394.718 -178.925 394.718 -161.457 L 394.718 -149.627 L 353.178 -147.151 C 314.527 -144.813 293.619 -128.995 293.619 -101.485 C 293.619 -73.7 315.215 -55.269 346.162 -55.269 Z M 355.104 -80.715 C 337.359 -80.715 326.081 -89.244 326.081 -102.31 C 326.081 -115.79 336.947 -123.631 357.717 -124.869 L 394.718 -127.207 L 394.718 -115.102 C 394.718 -95.02 377.661 -80.715 355.104 -80.715 Z M 467.894 1.402 C 500.355 1.402 515.624 -10.977 528.966 -48.528 L 587.424 -212.487 L 553.587 -212.487 L 514.386 -85.804 L 513.698 -85.804 L 474.497 -212.487 L 439.696 -212.487 L 496.091 -56.369 L 493.065 -46.878 C 487.976 -30.785 479.724 -24.595 465.005 -24.595 C 462.392 -24.595 457.303 -24.871 455.24 -25.146 L 455.24 0.576 C 457.165 1.127 465.418 1.402 467.894 1.402 Z" style=""/>
</svg>