<?xml version="1.0" encoding="utf-8"?>
<svg viewBox="-180.389 -349.41 841.065 408.432" xmlns="http://www.w3.org/2000/svg">
  <path class="st0" d="M 377.681 -199.289 C 365.077 -199.289 349.953 -194.727 335.428 -179.123 C 320.904 -194.727 305.659 -199.289 293.175 -199.289 C 293.175 -199.289 244.801 -202.89 244.801 -146.353 L 244.801 -54.885 L 279.851 -54.885 L 279.851 -141.191 C 279.851 -166.519 296.776 -166.999 300.137 -166.279 C 300.137 -166.279 306.259 -165.919 311.781 -160.157 C 311.781 -160.157 300.618 -145.512 299.777 -127.267 C 299.777 -127.267 297.257 -79.733 335.428 -79.733 C 373.6 -79.733 371.079 -127.267 371.079 -127.267 C 370.239 -145.632 359.075 -160.157 359.075 -160.157 C 364.597 -165.919 370.719 -166.279 370.719 -166.279 C 373.96 -166.999 391.005 -166.519 391.005 -141.191 L 391.005 -54.885 L 426.056 -54.885 L 426.056 -146.353 C 425.936 -203.01 377.681 -199.289 377.681 -199.289 Z M 335.308 -105.54 C 327.746 -105.54 325.345 -115.023 325.225 -124.026 C 324.985 -139.631 335.188 -150.914 335.308 -151.154 C 335.548 -150.914 345.631 -139.631 345.391 -124.026 C 345.391 -115.023 342.87 -105.54 335.308 -105.54 Z M 224.995 -196.888 L 189.944 -196.888 L 189.944 -54.765 L 224.995 -54.765 L 224.995 -196.888 Z M 207.469 -258.587 C 195.826 -258.587 186.103 -249.104 186.103 -237.58 C 186.103 -225.937 195.706 -216.214 207.469 -216.214 C 219.113 -216.214 228.476 -225.817 228.476 -237.58 C 228.596 -248.864 218.993 -258.587 207.469 -258.587 Z M 78.91 -187.405 L 78.91 -259.547 L 44.1 -259.547 L 44.1 -54.885 L 78.91 -54.885 L 78.91 -157.396 C 136.528 -185.365 134.367 -141.071 134.367 -141.071 L 134.367 -54.885 L 169.178 -54.885 L 169.178 -140.951 C 169.178 -224.256 96.436 -196.768 78.91 -187.405 Z M 474.19 -118.984 C 492.916 -112.382 516.563 -112.983 516.563 -112.983 C 572.74 -113.343 571.18 -154.155 571.18 -154.155 C 569.739 -200.129 515.723 -199.289 515.723 -199.289 C 470.949 -199.289 439.62 -168.559 439.62 -124.746 C 439.62 -80.813 470.349 -52.484 517.763 -52.484 C 537.929 -52.484 557.135 -58.006 570.579 -67.849 L 570.579 -101.699 C 556.535 -89.576 539.73 -83.094 521.845 -83.094 C 521.965 -83.094 473.23 -80.693 474.19 -118.984 Z M 478.511 -148.873 C 484.393 -163.758 496.637 -171.56 514.042 -171.56 C 528.327 -171.56 536.609 -165.559 536.609 -155.956 C 536.609 -142.512 521.484 -141.311 507.32 -141.311 C 493.396 -141.311 484.753 -142.872 480.912 -143.832 L 477.191 -144.672 L 478.511 -148.873 Z M -27.802 -52.484 C -3.074 -52.484 14.331 -61.847 24.774 -69.649 L 24.774 -103.74 C 9.409 -91.616 -8.596 -84.654 -24.561 -84.654 C -50.129 -84.654 -68.014 -102.299 -68.014 -127.627 C -68.014 -151.634 -51.689 -168.439 -28.402 -168.439 C -20.84 -168.439 -14.238 -166.519 -7.276 -164.598 C -0.073 -162.558 7.369 -160.277 16.372 -160.277 C 19.132 -160.277 21.893 -160.517 24.774 -160.877 L 24.774 -193.287 C 22.373 -193.047 20.213 -192.807 17.812 -192.807 C 9.77 -192.807 2.447 -194.367 -5.115 -195.928 C -13.157 -197.608 -21.44 -199.409 -31.163 -199.409 C -50.609 -199.409 -68.614 -192.567 -81.818 -179.843 C -95.862 -166.399 -103.425 -147.793 -103.425 -125.947 C -103.665 -82.733 -72.455 -52.484 -27.802 -52.484 Z" style="fill: rgb(30, 198, 119);"/>
</svg>