<?xml version="1.0" encoding="utf-8"?>
<svg viewBox="-180.389 -349.41 841.065 408.432" xmlns="http://www.w3.org/2000/svg">
  <g id="Layer_1_copy_2" transform="matrix(0.867871, 0, 0, 0.867871, -196.239096, -876.943019)" style="">
    <g>
      <path d="M391.6,816.4c-0.8,0.5-1.8,0.7-2.7,0.5c-0.9-0.2-1.7-0.7-2.3-1.5c-2.7-3.9-6.4-7.1-10.7-9.3c-4.3-2.2-9-3.2-13.8-3.1 c-18.7,0-30.1,14.8-30.1,35.8c0,21.1,11.7,36.1,30.3,36.1c4.8,0.1,9.6-1,13.9-3.3c4.3-2.3,7.9-5.6,10.6-9.6 c0.5-0.8,1.3-1.3,2.2-1.5c0.9-0.2,1.9-0.1,2.7,0.4l8.9,5.1c0.5,0.2,0.9,0.6,1.2,1c0.3,0.4,0.6,0.9,0.7,1.4c0.1,0.5,0.1,1.1,0,1.6 c-0.1,0.5-0.3,1-0.6,1.5c-4.3,6.5-10.2,11.8-17.2,15.4c-6.9,3.6-14.7,5.3-22.5,5.1c-29.8,0-50-21.6-50-53.2s20.2-52.9,49.6-52.9 c7.7-0.2,15.3,1.5,22.2,4.9c6.9,3.4,12.8,8.4,17.3,14.7c0.3,0.4,0.5,0.9,0.6,1.4c0.1,0.5,0.1,1,0,1.5c-0.1,0.5-0.3,1-0.6,1.4 c-0.3,0.4-0.7,0.8-1.1,1.1L391.6,816.4z"/>
      <path d="M456.8,886.5v-4.3c-4.7,6-11.2,9.7-21.6,9.7c-15.5,0-26.2-8.5-26.2-23.3c0-18.5,16.5-21.7,26.6-23.1 c10.9-1.6,20.2-2.3,20.2-9.5c0-6.3-7.3-8-13.5-8c-7.1,0.1-14.1,1.9-20.4,5.2c-0.4,0.2-0.9,0.4-1.4,0.4c-0.5,0-1,0-1.5-0.2 c-0.5-0.2-0.9-0.4-1.3-0.7c-0.4-0.3-0.7-0.7-0.9-1.2l-3.2-6.7c-0.4-0.9-0.5-1.9-0.2-2.8c0.3-0.9,0.9-1.7,1.8-2.2 c8.8-4.7,18.6-7.2,28.6-7.2c17.8,0,30.3,7.3,30.3,24.9v48.7c0,1-0.4,1.9-1.1,2.6c-0.7,0.7-1.6,1.1-2.6,1.1h-9.7 c-0.5,0-1-0.1-1.5-0.2c-0.5-0.2-0.9-0.4-1.3-0.8c-0.4-0.3-0.7-0.8-0.9-1.2C456.9,887.5,456.8,887,456.8,886.5L456.8,886.5z M455.8,852.8c-3.4,2.6-9.7,3.5-16.5,4.7c-6.7,1.2-12.3,3-12.3,10.3c0,6.7,4.9,9.9,11.9,9.9c8.7,0,16.9-4.9,16.9-16.2V852.8z"/>
      <path d="M490.2,870.9c0.6-0.7,1.5-1.2,2.5-1.3c1-0.1,1.9,0.2,2.7,0.8c6.2,4.7,13.9,7.2,21.7,7c8,0,14-2.6,14-8.9 c0-5.7-5.5-6.9-18.7-9.2c-14-2.3-27.4-7-27.4-22.9c0-16.6,14.3-23.6,30.7-23.6c10.3-0.2,20.3,3.1,28.4,9.3c0.4,0.3,0.7,0.7,1,1.1 c0.2,0.4,0.4,0.9,0.4,1.4c0.1,0.5,0,1-0.2,1.5c-0.2,0.5-0.4,0.9-0.7,1.3l-4.7,5.5c-0.6,0.7-1.5,1.2-2.4,1.3 c-1,0.1-1.9-0.2-2.7-0.7c-5.7-4.2-12.7-6.4-19.8-6.3c-6.9,0-12.9,2-12.9,7.4c0,6,8.4,7.2,16.9,8.6c18.1,3.1,29.5,8.3,29.5,23.3 c0,15.8-12.6,25.5-32.6,25.5c-10.9,0.3-21.7-3.2-30.3-9.9c-0.4-0.3-0.7-0.7-0.9-1.2c-0.2-0.4-0.4-0.9-0.4-1.4c0-0.5,0-1,0.2-1.5 c0.2-0.5,0.4-0.9,0.7-1.3L490.2,870.9z"/>
      <path d="M559.6,886.5v-94.9c0-1,0.4-1.9,1.1-2.6c0.7-0.7,1.6-1.1,2.6-1.1h10.7c1,0,1.9,0.4,2.6,1.1c0.7,0.7,1.1,1.6,1.1,2.6V824 c2.7-3.6,6.2-6.5,10.2-8.4c4-1.9,8.4-2.9,12.9-2.8c15.9,0,25.2,11.3,25.2,27.5v46.2c0,1-0.4,1.9-1.1,2.6c-0.7,0.7-1.7,1.1-2.6,1.1 h-10.7c-1,0-1.9-0.4-2.6-1.1c-0.7-0.7-1.1-1.6-1.1-2.6v-42c0-8-2.6-15.3-12.9-15.3c-9.8,0-17.2,6.9-17.2,18.3v39 c0,1-0.4,1.9-1.1,2.6c-0.7,0.7-1.6,1.1-2.6,1.1h-10.7c-0.5,0-1-0.1-1.4-0.3s-0.9-0.5-1.2-0.8c-0.3-0.3-0.6-0.8-0.8-1.2 C559.7,887.5,559.6,887,559.6,886.5L559.6,886.5z"/>
      <path d="M744.4,887.7l-7.7-22.8h-39.1l-7.8,22.8c-0.3,0.7-0.7,1.4-1.4,1.8c-0.6,0.5-1.4,0.7-2.2,0.7h-12.6c-0.6,0-1.2-0.1-1.7-0.4 c-0.5-0.3-1-0.7-1.3-1.2c-0.3-0.5-0.6-1.1-0.6-1.7c-0.1-0.6,0-1.2,0.2-1.8l35.2-94.9c0.3-0.7,0.8-1.3,1.4-1.7 c0.6-0.4,1.4-0.6,2.1-0.6h17.2c0.8,0,1.5,0.2,2.1,0.7c0.6,0.4,1.1,1.1,1.4,1.8l35.1,94.9c0.2,0.6,0.3,1.2,0.2,1.8 c-0.1,0.6-0.3,1.2-0.6,1.7c-0.3,0.5-0.8,0.9-1.3,1.2c-0.5,0.3-1.1,0.4-1.7,0.4h-13.3c-0.8,0-1.5-0.3-2.2-0.7 C745.1,889.1,744.6,888.5,744.4,887.7z M717.3,804.5L702.2,849h29.5L717.3,804.5z"/>
      <path d="M791.7,818.3v5.9c2.7-3.7,6.2-6.6,10.2-8.6c4.1-2,8.6-2.9,13.1-2.7c20.6,0,34,17.1,34,39.4c0,22.4-13.3,39.6-34,39.6 c-4.5,0.2-9-0.8-13.1-2.8c-4.1-2-7.6-5-10.2-8.7v30.9c0,1-0.4,1.9-1.1,2.6c-0.7,0.7-1.7,1.1-2.6,1.1h-10.7c-1,0-1.9-0.4-2.6-1.1 c-0.7-0.7-1.1-1.6-1.1-2.6v-93.3c0-1,0.4-1.9,1.1-2.6c0.7-0.7,1.6-1.1,2.6-1.1H788c0.5,0,1,0.1,1.5,0.3c0.5,0.2,0.9,0.5,1.2,0.9 c0.3,0.4,0.6,0.8,0.8,1.3C791.6,817.3,791.7,817.8,791.7,818.3z M811.2,876.1c12.6,0,18.6-10.8,18.6-23.8c0-13-6.2-23.5-18.6-23.5 c-12.5,0-19.5,10.5-19.5,23.5C791.7,865.3,798.3,876.1,811.2,876.1z"/>
      <path d="M878.4,818.3v5.9c2.7-3.7,6.2-6.6,10.2-8.6c4.1-2,8.6-2.9,13.1-2.7c20.7,0,34,17.1,34,39.4c0,22.4-13.3,39.6-34,39.6 c-4.5,0.2-9-0.8-13.1-2.8c-4.1-2-7.6-5-10.2-8.7v30.9c0,1-0.4,1.9-1.1,2.6c-0.7,0.7-1.6,1.1-2.6,1.1H864c-1,0-1.9-0.4-2.6-1.1 c-0.7-0.7-1.1-1.6-1.1-2.6v-93.3c0-1,0.4-1.9,1.1-2.6c0.7-0.7,1.6-1.1,2.6-1.1h10.7c0.5,0,1,0.1,1.5,0.3c0.5,0.2,0.9,0.5,1.2,0.9 c0.3,0.4,0.6,0.8,0.8,1.3C878.4,817.3,878.5,817.8,878.4,818.3L878.4,818.3z M897.9,876.1c12.6,0,18.7-10.8,18.7-23.8 c0-13-6.2-23.5-18.7-23.5c-12.5,0-19.5,10.5-19.5,23.5C878.4,865.3,885.2,876.1,897.9,876.1z"/>
      <path class="st4" d="M110.3,739.2c-25.4,0-46.1,20.6-46.1,46.1v107.7c0,25.4,20.6,46.1,46.1,46.1h106.6 c25.4,0,46.1-20.6,46.1-46.1V785.3c0-25.4-20.6-46.1-46.1-46.1H110.3z M195.9,813.5c-7.6-6.4-17.2-9.9-27.1-10 c-8.2,0-16.4,2.7-16.4,10.2c0,6.9,7.3,9.6,16.3,12.9c0.9,0.3,1.8,0.6,2.7,1c17.8,6,32.4,13.3,32.4,30.7 c0,18.9-14.7,31.8-38.7,33.3l-2.2,10.1c-0.4,1.9-2.1,3.2-4,3.2h-15.1c-1.2,0-2.4-0.6-3.2-1.6c-0.8-1-1.1-2.2-0.8-3.4l2.3-10.7 c-9.1-2.3-17.4-6.9-24.2-13.3c-0.8-0.8-1.2-1.8-1.2-2.9s0.4-2.1,1.2-2.9l8.4-8.2c1.6-1.6,4.1-1.6,5.7,0 c7.7,7.3,17.9,11.3,28.5,11.2c10.9,0,18.3-4.6,18.3-12c0-6.6-6.1-8.9-17.6-13.1c-1.2-0.4-2.5-0.9-3.9-1.4 c-14.8-5.3-28.9-12.8-28.9-30.4c0-20.3,17-30.2,37-31.2l2.1-10.3c0.4-1.9,2.1-3.2,4-3.2h15c1.2,0,2.4,0.5,3.2,1.5 c0.8,0.9,1.1,2.2,0.8,3.4l-2.3,11.5c7.7,2.5,14.8,6.5,20.9,11.7c0.8,0.7,1.3,1.8,1.4,2.9c0,1.1-0.4,2.2-1.2,3l-7.8,7.8 C200,814.9,197.5,815,195.9,813.5z" style="clip-rule: evenodd; fill-rule: evenodd;"/>
    </g>
  </g>
</svg>