<svg id="Layer_1" data-name="Layer 1" xmlns="http://www.w3.org/2000/svg" viewBox="0 0 400 300" width="406" height="306" class="illustration styles_illustrationTablet__1DWOa"><title>_</title><path d="M104.22,53.28c-33.91,12.46-53.68,25.37-58.64,63.6C41.4,149.1,43.85,213,102.63,223.18c114.38,19.73,212.16,13,241.27-37.64,27.06-47,24.37-103.24-36.45-127.67C261.7,39.49,170.44,28.93,104.22,53.28Z" fill="#e6e6e6" opacity="0.3"></path><path d="M205.74,80.17s-2.31,8.77-9.21,12.92c0,0,7.07-1.09,13.11,7.59,0,0,1.85-7.83,7.57-12.94C217.21,87.74,208.64,87.65,205.74,80.17Z" fill="#e6e6e6"></path><path d="M124.82,65.9s-7.22,5.48-15.22,4.51c0,0,6.24,3.49,5.66,14,0,0,6.28-5,13.94-5.53C129.2,78.93,122.49,73.57,124.82,65.9Z" fill="#e6e6e6"></path><path d="M293.68,80.47s-5.6,4.25-11.79,3.49c0,0,4.84,2.71,4.39,10.89a21.75,21.75,0,0,1,10.79-4.29S291.88,86.41,293.68,80.47Z" fill="#e6e6e6"></path><ellipse cx="200" cy="240.43" rx="163.3" ry="20.51" fill="#e6e6e6" opacity="0.45"></ellipse><path d="M241.64,198.45l0,12.2c0,5.53-15.42,10-34.42,9.95s-34.39-4.54-34.38-10.06l0-12.2Z" fill="#ffd200"></path><path d="M241.61,213.15l0,12.2c0,5.53-15.42,10-34.42,10s-34.39-4.54-34.38-10.07l0-12.19Z" fill="#ffd200"></path><path d="M241.61,213.15l0,12.2c0,5.53-15.42,10-34.42,10s-34.39-4.54-34.38-10.07l0-12.19Z" opacity="0.08"></path><ellipse cx="206.87" cy="212.69" rx="9.92" ry="34.08" transform="translate(-6.17 419.2) rotate(-89.9)" fill="#ffd200"></ellipse><path d="M241.64,198.45l0,12.2c0,5.53-15.42,10-34.42,9.95s-34.39-4.54-34.38-10.06l0-12.2Z" opacity="0.08"></path><path d="M239.16,183.88l0,12.19c0,5.53-15.42,10-34.42,10s-34.39-4.54-34.38-10.06l0-12.2Z" fill="#ffd200"></path><path d="M241.69,169.18l0,12.2c0,5.53-15.42,10-34.42,10s-34.39-4.54-34.39-10.07l0-12.19Z" fill="#ffd200"></path><ellipse cx="206.9" cy="198.13" rx="9.92" ry="34.08" transform="translate(8.42 404.69) rotate(-89.9)" fill="#ffd200"></ellipse><path d="M239.16,183.88l0,12.19c0,5.53-15.42,10-34.42,10s-34.39-4.54-34.38-10.06l0-12.2Z" opacity="0.08"></path><ellipse cx="204.44" cy="183.68" rx="9.92" ry="34.08" transform="translate(20.42 387.82) rotate(-89.9)" fill="#ffd200"></ellipse><path d="M241.69,169.18l0,12.2c0,5.53-15.42,10-34.42,10s-34.39-4.54-34.39-10.07l0-12.19Z" opacity="0.08"></path><ellipse cx="207.27" cy="169.12" rx="9.92" ry="34.41" transform="translate(37.8 376.11) rotate(-89.9)" fill="#ffd200"></ellipse><path d="M181.41,153.64l0,12.2c0,5.53,15.41,10,34.41,9.95s34.4-4.54,34.39-10.07l0-12.19Z" fill="#ffd200"></path><path d="M178.88,139l0,12.2c0,5.52,15.42,10,34.42,9.94s34.39-4.53,34.38-10.06l0-12.2Z" fill="#ffd200"></path><path d="M181.41,153.64l0,12.2c0,5.53,15.41,10,34.41,9.95s34.4-4.54,34.39-10.07l0-12.19Z" opacity="0.08"></path><ellipse cx="216.12" cy="153.45" rx="34.08" ry="9.92" transform="translate(-0.26 0.36) rotate(-0.1)" fill="#ffd200"></ellipse><path d="M178.88,139l0,12.2c0,5.52,15.42,10,34.42,9.94s34.39-4.53,34.38-10.06l0-12.2Z" opacity="0.08"></path><ellipse cx="213.29" cy="138.89" rx="34.41" ry="9.92" transform="translate(-0.23 0.36) rotate(-0.1)" fill="#ffd200"></ellipse><path d="M326.51,201.71l0,12.19c0,5.53-15.42,10-34.42,9.95s-34.39-4.53-34.38-10.06l0-12.2Z" fill="#ffd200"></path><path d="M326.48,216.41l0,12.19c0,5.53-15.42,10-34.41,10s-34.4-4.54-34.39-10.06l0-12.2Z" fill="#ffd200"></path><path d="M326.48,216.41l0,12.19c0,5.53-15.42,10-34.41,10s-34.4-4.54-34.39-10.06l0-12.2Z" opacity="0.08"></path><ellipse cx="291.74" cy="215.94" rx="9.92" ry="34.08" transform="translate(75.31 507.32) rotate(-89.9)" fill="#ffd200"></ellipse><path d="M326.51,201.71l0,12.19c0,5.53-15.42,10-34.42,9.95s-34.39-4.53-34.38-10.06l0-12.2Z" opacity="0.08"></path><path d="M324,187.13l0,12.2c0,5.52-15.42,10-34.42,9.95s-34.39-4.54-34.38-10.07l0-12.2Z" fill="#ffd200"></path><path d="M326.56,172.44l0,12.19c0,5.53-15.42,10-34.42,10s-34.39-4.54-34.38-10.06l0-12.2Z" fill="#ffd200"></path><ellipse cx="291.77" cy="201.38" rx="9.92" ry="34.08" transform="translate(89.9 492.81) rotate(-89.9)" fill="#ffd200"></ellipse><path d="M324,187.13l0,12.2c0,5.52-15.42,10-34.42,9.95s-34.39-4.54-34.38-10.07l0-12.2Z" opacity="0.08"></path><ellipse cx="289.31" cy="186.94" rx="9.92" ry="34.08" transform="translate(101.89 475.93) rotate(-89.9)" fill="#ffd200"></ellipse><path d="M326.56,172.44l0,12.19c0,5.53-15.42,10-34.42,10s-34.39-4.54-34.38-10.06l0-12.2Z" opacity="0.08"></path><path d="M308.21,189.73s-26.73,8.16-22.44,48.65c0,0,17.43.58,25.7-1.54C318.87,234.94,308.21,189.73,308.21,189.73Z" opacity="0.08"></path><ellipse cx="292.15" cy="172.38" rx="9.92" ry="34.41" transform="translate(119.28 464.23) rotate(-89.9)" fill="#ffd200"></ellipse><polygon points="172.47 196.16 61.96 196.16 71.32 185.45 163.11 185.45 172.47 196.16" fill="#009a43"></polygon><polygon points="172.47 196.16 61.96 196.16 71.32 185.45 163.11 185.45 172.47 196.16" fill="#fff" opacity="0.44"></polygon><rect x="61.96" y="196.16" width="110.5" height="36.76" fill="#009a43"></rect><polygon points="125.37 185.45 109.06 185.45 103.35 196.16 131.08 196.16 125.37 185.45" fill="#f2f2f2"></polygon><rect x="61.96" y="203.14" width="110.5" height="1.68" opacity="0.08"></rect><rect x="61.96" y="210.7" width="110.5" height="1.68" opacity="0.08"></rect><rect x="61.96" y="218.27" width="110.5" height="1.68" opacity="0.08"></rect><rect x="61.96" y="225.83" width="110.5" height="1.68" opacity="0.08"></rect><rect x="103.35" y="196.16" width="27.72" height="36.76" fill="#e6e6e6"></rect><polygon points="156.08 156.27 45.58 156.27 54.94 145.56 146.73 145.56 156.08 156.27" fill="#009a43"></polygon><polygon points="156.08 156.27 45.58 156.27 54.94 145.56 146.73 145.56 156.08 156.27" fill="#fff" opacity="0.44"></polygon><rect x="45.58" y="156.27" width="110.5" height="36.76" fill="#009a43"></rect><polygon points="108.99 145.56 92.67 145.56 86.97 156.27 114.69 156.27 108.99 145.56" fill="#f2f2f2"></polygon><rect x="45.58" y="163.25" width="110.5" height="1.68" opacity="0.08"></rect><rect x="45.58" y="170.81" width="110.5" height="1.68" opacity="0.08"></rect><rect x="45.58" y="178.38" width="110.5" height="1.68" opacity="0.08"></rect><rect x="45.58" y="185.94" width="110.5" height="1.68" opacity="0.08"></rect><rect x="86.97" y="156.27" width="27.72" height="36.76" fill="#e6e6e6"></rect><polygon points="172.47 116.38 61.96 116.38 71.32 105.67 163.11 105.67 172.47 116.38" fill="#009a43"></polygon><polygon points="172.47 116.38 61.96 116.38 71.32 105.67 163.11 105.67 172.47 116.38" fill="#fff" opacity="0.44"></polygon><rect x="61.96" y="116.38" width="110.5" height="36.76" fill="#009a43"></rect><polygon points="125.37 105.67 109.06 105.67 103.35 116.38 131.08 116.38 125.37 105.67" fill="#f2f2f2"></polygon><rect x="61.96" y="123.36" width="110.5" height="1.68" opacity="0.08"></rect><rect x="61.96" y="130.93" width="110.5" height="1.68" opacity="0.08"></rect><rect x="61.96" y="138.49" width="110.5" height="1.68" opacity="0.08"></rect><rect x="61.96" y="146.05" width="110.5" height="1.68" opacity="0.08"></rect><rect x="103.35" y="116.38" width="27.72" height="36.76" fill="#e6e6e6"></rect><circle cx="112.21" cy="219.72" r="25.54" opacity="0.08"></circle><circle cx="112.21" cy="219.72" r="25.54" fill="#ffd200"></circle><g opacity="0.08"><circle cx="112.1" cy="211.93" r="25.54"></circle></g><circle cx="112.21" cy="219.72" r="25.54" opacity="0.08"></circle><circle cx="112.1" cy="211.93" r="25.54" fill="#ffd200"></circle><path d="M110.93,200.54c.71-.12,1,.08,1.09.8l.27,1.51a7,7,0,0,1,6.45,3.3c.5.67.42,1.1-.35,1.62l-1.4.95c-.65.46-1,.37-1.55-.3a3.92,3.92,0,0,0-4.38-1.68c-2.63.46-3.69,1.45-3.38,3.21a2.37,2.37,0,0,0,2.5,1.69,16.91,16.91,0,0,0,2.28,0,14.73,14.73,0,0,1,4.26.08,5.73,5.73,0,0,1,2,.67,6.09,6.09,0,0,1,2.4,4c.59,3.37-1.26,6.05-5.14,7.35l.28,1.6c.13.71-.05,1-.76,1.13l-1.7.3c-.71.12-1-.08-1.13-.79l-.28-1.58a7.15,7.15,0,0,1-7-3.67,1,1,0,0,1,.46-1.55l1.42-.82c.72-.42,1.09-.29,1.57.42a4.1,4.1,0,0,0,4.63,1.86c2.85-.5,4.11-1.65,3.79-3.47a1.94,1.94,0,0,0-1.67-1.69,10.83,10.83,0,0,0-3.16,0,14,14,0,0,1-4.31-.17,6,6,0,0,1-2-.7,5.74,5.74,0,0,1-2.41-3.91c-.59-3.34,1.12-5.94,5-7.17l-.26-1.51c-.13-.71.07-1,.79-1.13Z" fill="#fff"></path><path d="M322.38,144.66l0,11.55c0,5.23-14.6,9.45-32.59,9.42s-32.58-4.3-32.57-9.53l0-11.55Z" fill="#ffd200"></path><path d="M322.36,158.58l0,11.55c0,5.23-14.6,9.45-32.6,9.42s-32.57-4.3-32.56-9.53l0-11.55Z" fill="#ffd200"></path><path d="M322.36,158.58l0,11.55c0,5.23-14.6,9.45-32.6,9.42s-32.57-4.3-32.56-9.53l0-11.55Z" opacity="0.08"></path><ellipse cx="289.46" cy="158.14" rx="9.39" ry="32.28" transform="translate(130.83 447.33) rotate(-89.9)" fill="#ffd200"></ellipse><path d="M322.38,144.66l0,11.55c0,5.23-14.6,9.45-32.59,9.42s-32.58-4.3-32.57-9.53l0-11.55Z" opacity="0.08"></path><path d="M320,130.85l0,11.55c0,5.24-14.61,9.45-32.6,9.42s-32.57-4.29-32.56-9.53l0-11.55Z" fill="#ffd200"></path><path d="M322.43,116.93l0,11.56c0,5.23-14.6,9.45-32.6,9.42s-32.57-4.3-32.56-9.53l0-11.55Z" fill="#ffd200"></path><ellipse cx="289.48" cy="144.35" rx="9.39" ry="32.28" transform="translate(144.65 433.58) rotate(-89.9)" fill="#ffd200"></ellipse><path d="M320,130.85l0,11.55c0,5.24-14.61,9.45-32.6,9.42s-32.57-4.29-32.56-9.53l0-11.55Z" opacity="0.08"></path><ellipse cx="287.16" cy="130.67" rx="9.39" ry="32.28" transform="translate(156.01 417.6) rotate(-89.9)" fill="#ffd200"></ellipse><path d="M322.43,116.93l0,11.56c0,5.23-14.6,9.45-32.6,9.42s-32.57-4.3-32.56-9.53l0-11.55Z" opacity="0.08"></path><ellipse cx="289.84" cy="116.88" rx="9.39" ry="32.59" transform="translate(172.47 406.52) rotate(-89.9)" fill="#ffd200"></ellipse><polygon points="286.73 204.93 176.22 204.93 185.58 194.22 277.37 194.22 286.73 204.93" fill="#009a43"></polygon><polygon points="286.73 204.93 176.22 204.93 185.58 194.22 277.37 194.22 286.73 204.93" fill="#fff" opacity="0.44"></polygon><rect x="176.22" y="204.93" width="110.5" height="36.76" fill="#009a43"></rect><polygon points="239.63 194.22 223.31 194.22 217.61 204.93 245.34 204.93 239.63 194.22" fill="#f2f2f2"></polygon><rect x="176.22" y="211.91" width="110.5" height="1.68" opacity="0.08"></rect><rect x="176.22" y="219.47" width="110.5" height="1.68" opacity="0.08"></rect><rect x="176.22" y="227.03" width="110.5" height="1.68" opacity="0.08"></rect><rect x="176.22" y="234.6" width="110.5" height="1.68" opacity="0.08"></rect><rect x="217.61" y="204.93" width="27.72" height="36.76" fill="#e6e6e6"></rect><polygon points="354 223.01 257.7 168.8 271.12 164.06 351.1 209.09 354 223.01" fill="#009a43"></polygon><polygon points="354 223.01 257.7 168.8 271.12 164.06 351.1 209.09 354 223.01" fill="#fff" opacity="0.44"></polygon><rect x="241.58" y="193.54" width="110.5" height="36.76" transform="translate(142.14 -118.37) rotate(29.38)" fill="#009a43"></rect><polygon points="318.21 190.57 304 182.57 293.77 189.1 317.93 202.71 318.21 190.57" fill="#f2f2f2"></polygon><rect x="246.76" y="201.88" width="110.5" height="1.68" transform="translate(138.3 -122.09) rotate(29.38)" opacity="0.08"></rect><rect x="243.05" y="208.47" width="110.5" height="1.68" transform="translate(141.05 -119.42) rotate(29.38)" opacity="0.08"></rect><rect x="239.34" y="215.06" width="110.5" height="1.68" transform="translate(143.81 -116.76) rotate(29.38)" opacity="0.08"></rect><rect x="235.63" y="221.65" width="110.5" height="1.68" transform="translate(146.56 -114.09) rotate(29.38)" opacity="0.08"></rect><rect x="282.97" y="193.54" width="27.72" height="36.76" transform="translate(142.14 -118.37) rotate(29.38)" fill="#e6e6e6"></rect></svg>